<?xml version="1.0" standalone="no"?>
<!DOCTYPE svg PUBLIC "-//W3C//DTD SVG 20010904//EN"
 "http://www.w3.org/TR/2001/REC-SVG-20010904/DTD/svg10.dtd">
<svg version="1.0" xmlns="http://www.w3.org/2000/svg"
 width="200.000000pt" height="150.000000pt" viewBox="0 0 200.000000 150.000000"
 preserveAspectRatio="xMidYMid meet">

<g transform="translate(0.000000,150.000000) scale(0.100000,-0.100000)"
fill="#000000" stroke="none">
<path d="M1304 1309 c-37 -90 -64 -118 -153 -154 -39 -15 -70 -33 -68 -38 1
-5 41 -28 87 -51 l85 -41 39 -83 c22 -45 44 -81 50 -79 5 2 21 30 35 63 44 99
48 104 137 145 46 21 84 43 84 47 0 5 -32 21 -70 38 -87 36 -112 61 -150 150
-16 37 -33 70 -38 72 -5 1 -22 -29 -38 -69z"/>
<path d="M810 1023 c-70 -163 -90 -183 -248 -253 -67 -29 -127 -59 -133 -66
-11 -14 19 -30 176 -97 119 -50 142 -78 228 -282 19 -45 40 -80 48 -80 8 0 35
49 65 120 72 167 96 191 259 264 72 31 130 63 130 70 0 8 -58 39 -129 70 -167
73 -185 92 -255 255 -37 88 -58 126 -70 126 -11 0 -33 -39 -71 -127z"/>
</g>
</svg>
